# xmcd
#
# Track frame offsets:
#  182
#  17990
#  39340
#  64172
#  113760
#  141017
#
# Disc length: 2380 seconds
#
# Revision: 0
# Processed by: cddbd v1.5.1PL2 Copyright (c) Steve Scherf et al.
# Submitted via: Collectorz.com_Music_Collector 6.9
#
DISCID=4b094a06
DTITLE=Children of the Underground - Oh Happy Day
DYEAR=1996
DGENRE=
TTITLE0=Oh Happy Day (Brainstorm Single)
TTITLE1=Oh Happy Day (A Smooth Radio Mix)
TTITLE2=Oh Happy Day (3 of Us Heavy Water Mix)
TTITLE3=Oh Happy Day (Peace On Earth Mix)
TTITLE4=Oh Happy Day (Extended Brainstorm)
TTITLE5=Oh Happy Day (Brainstorm Club)
EXTD=
EXTT0=
EXTT1=
EXTT2=
EXTT3=
EXTT4=
EXTT5=
PLAYORDER=
